<svg width="533" height="75" viewBox="0 0 533 75" fill="none" xmlns="http://www.w3.org/2000/svg">
<g filter="url(#filter0_d)">
<path d="M105.863 28.0654L105.581 31.8838C104.009 32.2601 102.46 32.4482 100.933 32.4482C97.1364 32.4482 94.2422 31.4023 92.25 29.3105C90.2689 27.2077 89.2783 24.6566 89.2783 21.6572C89.2783 18.5472 90.3298 15.8411 92.4326 13.5391C94.5465 11.237 97.4408 10.0859 101.115 10.0859C102.465 10.0859 103.744 10.2409 104.95 10.5508L104.369 14.3857C103.063 13.9652 101.812 13.7549 100.617 13.7549C98.3704 13.7549 96.6992 14.4688 95.6035 15.8965C94.5078 17.3132 93.96 19.0397 93.96 21.0762C93.96 23.1569 94.6074 24.9609 95.9023 26.4883C97.2083 28.0156 99.0345 28.7793 101.381 28.7793C102.753 28.7793 104.247 28.5413 105.863 28.0654ZM128.026 32H122.714C122.714 31.2695 122.21 29.1999 121.203 25.791H113.533C112.493 29.1445 111.973 31.2142 111.973 32H106.976C106.976 31.5684 108.265 28.0267 110.844 21.375C113.434 14.7233 114.729 11.0599 114.729 10.3848H121.004C121.004 11.0156 122.172 14.6292 124.507 21.2256C126.853 27.8109 128.026 31.4023 128.026 32ZM120.356 22.6201C118.464 16.9092 117.518 13.8213 117.518 13.3564H117.252C117.252 13.7881 116.272 16.876 114.313 22.6201H120.356ZM148.098 32H143.184C141.9 28.082 140.915 25.6637 140.229 24.7451C139.542 23.8265 138.436 23.3672 136.908 23.3672C136.266 23.3672 135.652 23.3727 135.065 23.3838C135.065 26.2282 135.115 29.1003 135.215 32H130.6C130.743 28.6576 130.815 24.889 130.815 20.6943C130.815 16.6657 130.743 13.2292 130.6 10.3848H133.472C133.804 10.3848 134.495 10.3682 135.547 10.335C136.609 10.3018 137.589 10.2852 138.485 10.2852C143.565 10.2852 146.105 12.0228 146.105 15.498C146.105 18.2539 144.656 20.1742 141.756 21.2588V21.5078C142.874 21.8177 143.853 22.6921 144.694 24.1309C145.535 25.5586 146.67 28.1816 148.098 32ZM141.872 16.7266C141.872 14.5241 140.455 13.4229 137.622 13.4229C136.582 13.4229 135.663 13.5003 134.866 13.6553C134.988 15.3708 135.049 17.6064 135.049 20.3623C135.658 20.3844 136.172 20.3955 136.593 20.3955C140.112 20.3955 141.872 19.1725 141.872 16.7266ZM170.875 20.7939C170.875 24.1917 169.835 27.0085 167.754 29.2441C165.673 31.4798 163.1 32.5977 160.034 32.5977C157.112 32.5977 154.666 31.5739 152.696 29.5264C150.726 27.4678 149.741 24.8558 149.741 21.6904C149.741 18.2926 150.782 15.4759 152.862 13.2402C154.943 11.0046 157.516 9.88672 160.582 9.88672C163.504 9.88672 165.95 10.9105 167.92 12.958C169.89 15.0055 170.875 17.6175 170.875 20.7939ZM166.293 21.2754C166.293 18.9622 165.701 17.0863 164.517 15.6475C163.332 14.2087 161.871 13.4893 160.134 13.4893C158.518 13.4893 157.146 14.2142 156.017 15.6641C154.888 17.1139 154.323 18.9456 154.323 21.1592C154.323 23.4613 154.915 25.3372 156.1 26.7871C157.295 28.2259 158.756 28.9453 160.482 28.9453C162.098 28.9453 163.471 28.2204 164.6 26.7705C165.729 25.3096 166.293 23.4779 166.293 21.2754ZM188.489 28.3809L188.356 32H174.561C174.693 29.0007 174.76 25.2321 174.76 20.6943C174.76 16.5329 174.693 13.0964 174.561 10.3848H179.226C179.093 12.8971 179.026 16.3337 179.026 20.6943C179.026 24.0257 178.954 26.6709 178.811 28.6299C181.865 28.6299 185.091 28.5469 188.489 28.3809ZM195.761 32H191.062C191.206 28.569 191.278 24.8005 191.278 20.6943C191.278 16.6546 191.206 13.2181 191.062 10.3848H195.761C195.617 13.1738 195.545 16.6104 195.545 20.6943C195.545 24.8669 195.617 28.6354 195.761 32ZM218.372 32H214.271C214.271 31.5462 212.75 29.1501 209.706 24.8115C206.519 20.2406 204.703 17.1139 204.261 15.4316H203.995C204.272 17.8555 204.41 20.0469 204.41 22.0059C204.41 24.7396 204.488 28.071 204.643 32H200.559C200.725 28.569 200.808 24.8005 200.808 20.6943C200.808 16.6546 200.725 13.2181 200.559 10.3848H205.489C205.489 10.9714 206.856 13.3122 209.59 17.4072C212.501 21.7568 214.172 24.7064 214.604 26.2559H214.853C214.587 23.7878 214.454 21.5742 214.454 19.6152C214.454 16.6159 214.377 13.5391 214.222 10.3848H218.372C218.217 13.1296 218.14 16.5661 218.14 20.6943C218.14 24.8558 218.217 28.6243 218.372 32ZM242.013 32H236.7C236.7 31.2695 236.197 29.1999 235.189 25.791H227.52C226.479 29.1445 225.959 31.2142 225.959 32H220.962C220.962 31.5684 222.251 28.0267 224.83 21.375C227.42 14.7233 228.715 11.0599 228.715 10.3848H234.99C234.99 11.0156 236.158 14.6292 238.493 21.2256C240.84 27.8109 242.013 31.4023 242.013 32ZM234.343 22.6201C232.45 16.9092 231.504 13.8213 231.504 13.3564H231.238C231.238 13.7881 230.259 16.876 228.3 22.6201H234.343ZM265.886 28.3809L265.753 32H251.957C252.09 29.0007 252.156 25.2321 252.156 20.6943C252.156 16.5329 252.09 13.0964 251.957 10.3848H256.622C256.489 12.8971 256.423 16.3337 256.423 20.6943C256.423 24.0257 256.351 26.6709 256.207 28.6299C259.262 28.6299 262.488 28.5469 265.886 28.3809ZM287.302 32H281.989C281.989 31.2695 281.486 29.1999 280.479 25.791H272.809C271.768 29.1445 271.248 31.2142 271.248 32H266.251C266.251 31.5684 267.54 28.0267 270.119 21.375C272.709 14.7233 274.004 11.0599 274.004 10.3848H280.279C280.279 11.0156 281.447 14.6292 283.782 21.2256C286.129 27.8109 287.302 31.4023 287.302 32ZM279.632 22.6201C277.739 16.9092 276.793 13.8213 276.793 13.3564H276.527C276.527 13.7881 275.548 16.876 273.589 22.6201H279.632ZM304.169 10.3848L304.053 13.9541C301.839 13.7881 299.753 13.7051 297.794 13.7051C297.772 15.7969 297.761 18.1266 297.761 20.6943C297.761 24.6787 297.822 28.4473 297.943 32H293.295C293.439 28.4805 293.511 24.7119 293.511 20.6943C293.511 18.1709 293.489 15.8411 293.444 13.7051C291.884 13.7051 289.742 13.7936 287.02 13.9707L287.152 10.3848H304.169ZM326.963 20.7939C326.963 24.1917 325.923 27.0085 323.842 29.2441C321.761 31.4798 319.188 32.5977 316.122 32.5977C313.2 32.5977 310.754 31.5739 308.784 29.5264C306.814 27.4678 305.829 24.8558 305.829 21.6904C305.829 18.2926 306.869 15.4759 308.95 13.2402C311.031 11.0046 313.604 9.88672 316.67 9.88672C319.592 9.88672 322.038 10.9105 324.008 12.958C325.978 15.0055 326.963 17.6175 326.963 20.7939ZM322.381 21.2754C322.381 18.9622 321.789 17.0863 320.604 15.6475C319.42 14.2087 317.959 13.4893 316.222 13.4893C314.606 13.4893 313.233 14.2142 312.104 15.6641C310.976 17.1139 310.411 18.9456 310.411 21.1592C310.411 23.4613 311.003 25.3372 312.188 26.7871C313.383 28.2259 314.844 28.9453 316.57 28.9453C318.186 28.9453 319.559 28.2204 320.688 26.7705C321.816 25.3096 322.381 23.4779 322.381 21.2754ZM348.146 32H343.232C341.949 28.082 340.964 25.6637 340.277 24.7451C339.591 23.8265 338.484 23.3672 336.957 23.3672C336.315 23.3672 335.701 23.3727 335.114 23.3838C335.114 26.2282 335.164 29.1003 335.264 32H330.648C330.792 28.6576 330.864 24.889 330.864 20.6943C330.864 16.6657 330.792 13.2292 330.648 10.3848H333.521C333.853 10.3848 334.544 10.3682 335.596 10.335C336.658 10.3018 337.638 10.2852 338.534 10.2852C343.614 10.2852 346.154 12.0228 346.154 15.498C346.154 18.2539 344.704 20.1742 341.805 21.2588V21.5078C342.923 21.8177 343.902 22.6921 344.743 24.1309C345.584 25.5586 346.719 28.1816 348.146 32ZM341.921 16.7266C341.921 14.5241 340.504 13.4229 337.671 13.4229C336.631 13.4229 335.712 13.5003 334.915 13.6553C335.037 15.3708 335.098 17.6064 335.098 20.3623C335.706 20.3844 336.221 20.3955 336.642 20.3955C340.161 20.3955 341.921 19.1725 341.921 16.7266ZM368.4 32H363.486C362.202 28.082 361.217 25.6637 360.531 24.7451C359.845 23.8265 358.738 23.3672 357.211 23.3672C356.569 23.3672 355.955 23.3727 355.368 23.3838C355.368 26.2282 355.418 29.1003 355.518 32H350.902C351.046 28.6576 351.118 24.889 351.118 20.6943C351.118 16.6657 351.046 13.2292 350.902 10.3848H353.774C354.106 10.3848 354.798 10.3682 355.85 10.335C356.912 10.3018 357.892 10.2852 358.788 10.2852C363.868 10.2852 366.408 12.0228 366.408 15.498C366.408 18.2539 364.958 20.1742 362.059 21.2588V21.5078C363.176 21.8177 364.156 22.6921 364.997 24.1309C365.838 25.5586 366.973 28.1816 368.4 32ZM362.175 16.7266C362.175 14.5241 360.758 13.4229 357.925 13.4229C356.884 13.4229 355.966 13.5003 355.169 13.6553C355.291 15.3708 355.352 17.6064 355.352 20.3623C355.96 20.3844 356.475 20.3955 356.896 20.3955C360.415 20.3955 362.175 19.1725 362.175 16.7266ZM385.417 28.3477L385.284 32H371.156C371.3 28.6576 371.372 24.889 371.372 20.6943C371.372 16.6657 371.3 13.2292 371.156 10.3848H384.637L384.454 14.0205C381.134 13.8434 378.123 13.7549 375.423 13.7549C375.534 15.2933 375.589 17.1084 375.589 19.2002C377.902 19.2002 380.376 19.1393 383.01 19.0176V22.4873C380.42 22.3766 377.946 22.3213 375.589 22.3213C375.589 24.568 375.633 26.6709 375.722 28.6299C378.754 28.6299 381.986 28.5358 385.417 28.3477ZM414.719 20.4453C414.719 23.5885 413.712 26.3333 411.697 28.6797C409.683 31.026 406.861 32.1992 403.23 32.1992C401.592 32.1992 399.335 32.1328 396.457 32C396.601 28.6576 396.673 24.889 396.673 20.6943C396.673 16.6657 396.601 13.2292 396.457 10.3848H399.362C399.838 10.3848 400.547 10.3682 401.487 10.335C402.428 10.3018 403.042 10.2852 403.33 10.2852C407.326 10.2852 410.22 11.2812 412.013 13.2734C413.817 15.2656 414.719 17.6562 414.719 20.4453ZM410.187 21.1592C410.187 19.0342 409.567 17.2467 408.327 15.7969C407.088 14.3359 405.195 13.6055 402.649 13.6055C402.174 13.6055 401.521 13.6553 400.69 13.7549C400.801 15.9684 400.856 18.2816 400.856 20.6943C400.856 23.3395 400.912 25.9626 401.022 28.5635C401.742 28.7074 402.461 28.7793 403.181 28.7793C405.56 28.7793 407.32 28.0433 408.46 26.5713C409.611 25.0882 410.187 23.2842 410.187 21.1592ZM432.665 28.3477L432.532 32H418.404C418.548 28.6576 418.62 24.889 418.62 20.6943C418.62 16.6657 418.548 13.2292 418.404 10.3848H431.885L431.702 14.0205C428.382 13.8434 425.371 13.7549 422.671 13.7549C422.782 15.2933 422.837 17.1084 422.837 19.2002C425.15 19.2002 427.624 19.1393 430.258 19.0176V22.4873C427.668 22.3766 425.194 22.3213 422.837 22.3213C422.837 24.568 422.881 26.6709 422.97 28.6299C426.002 28.6299 429.234 28.5358 432.665 28.3477ZM451.807 28.0654L451.524 31.8838C449.953 32.2601 448.403 32.4482 446.876 32.4482C443.08 32.4482 440.186 31.4023 438.193 29.3105C436.212 27.2077 435.222 24.6566 435.222 21.6572C435.222 18.5472 436.273 15.8411 438.376 13.5391C440.49 11.237 443.384 10.0859 447.059 10.0859C448.409 10.0859 449.687 10.2409 450.894 10.5508L450.312 14.3857C449.007 13.9652 447.756 13.7549 446.561 13.7549C444.314 13.7549 442.643 14.4688 441.547 15.8965C440.451 17.3132 439.903 19.0397 439.903 21.0762C439.903 23.1569 440.551 24.9609 441.846 26.4883C443.152 28.0156 444.978 28.7793 447.324 28.7793C448.697 28.7793 450.191 28.5413 451.807 28.0654ZM459.825 32H455.127C455.271 28.569 455.343 24.8005 455.343 20.6943C455.343 16.6546 455.271 13.2181 455.127 10.3848H459.825C459.681 13.1738 459.609 16.6104 459.609 20.6943C459.609 24.8669 459.681 28.6354 459.825 32ZM478.452 28.248L478.336 32H463.511L463.76 28.5967C464.966 27.0029 466.754 24.3577 469.122 20.6611C471.69 16.6546 472.974 14.4023 472.974 13.9043V13.6387C470.328 13.6387 467.268 13.766 463.793 14.0205L463.893 10.3848H478.104L477.871 13.8213C476.654 15.5036 474.949 18.1045 472.758 21.624C470.279 25.6084 469.039 27.8607 469.039 28.3809V28.6299C471.363 28.6299 474.501 28.5026 478.452 28.248ZM496.382 28.3477L496.249 32H482.121C482.265 28.6576 482.337 24.889 482.337 20.6943C482.337 16.6657 482.265 13.2292 482.121 10.3848H495.602L495.419 14.0205C492.099 13.8434 489.088 13.7549 486.388 13.7549C486.498 15.2933 486.554 17.1084 486.554 19.2002C488.867 19.2002 491.34 19.1393 493.975 19.0176V22.4873C491.385 22.3766 488.911 22.3213 486.554 22.3213C486.554 24.568 486.598 26.6709 486.687 28.6299C489.719 28.6299 492.951 28.5358 496.382 28.3477ZM517.549 32H512.635C511.351 28.082 510.366 25.6637 509.68 24.7451C508.993 23.8265 507.887 23.3672 506.359 23.3672C505.717 23.3672 505.103 23.3727 504.517 23.3838C504.517 26.2282 504.566 29.1003 504.666 32H500.051C500.195 28.6576 500.267 24.889 500.267 20.6943C500.267 16.6657 500.195 13.2292 500.051 10.3848H502.923C503.255 10.3848 503.947 10.3682 504.998 10.335C506.061 10.3018 507.04 10.2852 507.937 10.2852C513.017 10.2852 515.557 12.0228 515.557 15.498C515.557 18.2539 514.107 20.1742 511.207 21.2588V21.5078C512.325 21.8177 513.304 22.6921 514.146 24.1309C514.987 25.5586 516.121 28.1816 517.549 32ZM511.323 16.7266C511.323 14.5241 509.907 13.4229 507.073 13.4229C506.033 13.4229 505.114 13.5003 504.317 13.6553C504.439 15.3708 504.5 17.6064 504.5 20.3623C505.109 20.3844 505.623 20.3955 506.044 20.3955C509.563 20.3955 511.323 19.1725 511.323 16.7266Z" fill="white"/>
<path d="M103.023 57.8438C102.391 58.6016 101.496 59.1914 100.34 59.6133C99.1836 60.0273 97.9023 60.2344 96.4961 60.2344C95.0195 60.2344 93.7227 59.9141 92.6055 59.2734C91.4961 58.625 90.6367 57.6875 90.0273 56.4609C89.4258 55.2344 89.1172 53.793 89.1016 52.1367V50.9766C89.1016 49.2734 89.3867 47.8008 89.957 46.5586C90.5352 45.3086 91.3633 44.3555 92.4414 43.6992C93.5273 43.0352 94.7969 42.7031 96.25 42.7031C98.2734 42.7031 99.8555 43.1875 100.996 44.1562C102.137 45.1172 102.812 46.5195 103.023 48.3633H99.6016C99.4453 47.3867 99.0977 46.6719 98.5586 46.2188C98.0273 45.7656 97.293 45.5391 96.3555 45.5391C95.1602 45.5391 94.25 45.9883 93.625 46.8867C93 47.7852 92.6836 49.1211 92.6758 50.8945V51.9844C92.6758 53.7734 93.0156 55.125 93.6953 56.0391C94.375 56.9531 95.3711 57.4102 96.6836 57.4102C98.0039 57.4102 98.9453 57.1289 99.5078 56.5664V53.625H96.3086V51.0352H103.023V57.8438ZM124.668 52.6055H117.918V57.1758H125.84V60H114.403V42.9375H125.817V45.7852H117.918V49.8516H124.668V52.6055ZM145.27 55.5234C145.27 54.8594 145.036 54.3516 144.567 54C144.099 53.6406 143.255 53.2656 142.036 52.875C140.817 52.4766 139.853 52.0859 139.142 51.7031C137.204 50.6562 136.235 49.2461 136.235 47.4727C136.235 46.5508 136.493 45.7305 137.009 45.0117C137.532 44.2852 138.278 43.7188 139.247 43.3125C140.224 42.9062 141.317 42.7031 142.528 42.7031C143.747 42.7031 144.833 42.9258 145.786 43.3711C146.739 43.8086 147.478 44.4297 148.001 45.2344C148.532 46.0391 148.798 46.9531 148.798 47.9766H145.282C145.282 47.1953 145.036 46.5898 144.544 46.1602C144.052 45.7227 143.36 45.5039 142.47 45.5039C141.61 45.5039 140.942 45.6875 140.466 46.0547C139.989 46.4141 139.751 46.8906 139.751 47.4844C139.751 48.0391 140.028 48.5039 140.583 48.8789C141.145 49.2539 141.97 49.6055 143.056 49.9336C145.056 50.5352 146.513 51.2812 147.427 52.1719C148.341 53.0625 148.798 54.1719 148.798 55.5C148.798 56.9766 148.239 58.1367 147.122 58.9805C146.005 59.8164 144.501 60.2344 142.61 60.2344C141.298 60.2344 140.103 59.9961 139.024 59.5195C137.946 59.0352 137.122 58.375 136.552 57.5391C135.989 56.7031 135.708 55.7344 135.708 54.6328H139.235C139.235 56.5156 140.36 57.457 142.61 57.457C143.446 57.457 144.099 57.2891 144.567 56.9531C145.036 56.6094 145.27 56.1328 145.27 55.5234ZM172.552 45.7852H167.326V60H163.81V45.7852H158.654V42.9375H172.552V45.7852ZM186.826 60H183.31V42.9375H186.826V60ZM212.631 51.8555C212.631 53.5352 212.334 55.0078 211.741 56.2734C211.147 57.5391 210.295 58.5156 209.186 59.2031C208.084 59.8906 206.819 60.2344 205.389 60.2344C203.975 60.2344 202.713 59.8945 201.604 59.2148C200.495 58.5352 199.635 57.5664 199.026 56.3086C198.416 55.043 198.108 53.5898 198.1 51.9492V51.1055C198.1 49.4258 198.401 47.9492 199.002 46.6758C199.612 45.3945 200.467 44.4141 201.569 43.7344C202.678 43.0469 203.944 42.7031 205.366 42.7031C206.788 42.7031 208.049 43.0469 209.151 43.7344C210.26 44.4141 211.116 45.3945 211.717 46.6758C212.327 47.9492 212.631 49.4219 212.631 51.0938V51.8555ZM209.069 51.082C209.069 49.293 208.748 47.9336 208.108 47.0039C207.467 46.0742 206.553 45.6094 205.366 45.6094C204.186 45.6094 203.276 46.0703 202.635 46.9922C201.995 47.9062 201.67 49.25 201.663 51.0234V51.8555C201.663 53.5977 201.983 54.9492 202.623 55.9102C203.264 56.8711 204.186 57.3516 205.389 57.3516C206.569 57.3516 207.475 56.8906 208.108 55.9688C208.741 55.0391 209.061 53.6875 209.069 51.9141V51.082ZM206.045 38.3672H209.737L206.491 42H203.737L206.045 38.3672ZM237.581 60H234.065L227.222 48.7734V60H223.706V42.9375H227.222L234.077 54.1875V42.9375H237.581V60ZM267.406 60H263.89V42.9375H267.406V60ZM293.071 60H289.555L282.711 48.7734V60H279.196V42.9375H282.711L289.567 54.1875V42.9375H293.071V60ZM309.255 42.9375L313.638 55.3125L317.997 42.9375H322.614V60H319.087V55.3359L319.438 47.2852L314.833 60H312.419L307.825 47.2969L308.177 55.3359V60H304.661V42.9375H309.255ZM348.22 51.8555C348.22 53.5352 347.923 55.0078 347.329 56.2734C346.736 57.5391 345.884 58.5156 344.775 59.2031C343.673 59.8906 342.408 60.2344 340.978 60.2344C339.564 60.2344 338.302 59.8945 337.193 59.2148C336.083 58.5352 335.224 57.5664 334.615 56.3086C334.005 55.043 333.697 53.5898 333.689 51.9492V51.1055C333.689 49.4258 333.99 47.9492 334.591 46.6758C335.2 45.3945 336.056 44.4141 337.158 43.7344C338.267 43.0469 339.533 42.7031 340.954 42.7031C342.376 42.7031 343.638 43.0469 344.74 43.7344C345.849 44.4141 346.704 45.3945 347.306 46.6758C347.915 47.9492 348.22 49.4219 348.22 51.0938V51.8555ZM344.658 51.082C344.658 49.293 344.337 47.9336 343.697 47.0039C343.056 46.0742 342.142 45.6094 340.954 45.6094C339.775 45.6094 338.865 46.0703 338.224 46.9922C337.583 47.9062 337.259 49.25 337.251 51.0234V51.8555C337.251 53.5977 337.572 54.9492 338.212 55.9102C338.853 56.8711 339.775 57.3516 340.978 57.3516C342.158 57.3516 343.064 56.8906 343.697 55.9688C344.329 55.0391 344.65 53.6875 344.658 51.9141V51.082ZM359.295 60V42.9375H365.271C367.342 42.9375 368.912 43.3359 369.982 44.1328C371.052 44.9219 371.588 46.082 371.588 47.6133C371.588 48.4492 371.373 49.1875 370.943 49.8281C370.513 50.4609 369.916 50.9258 369.15 51.2227C370.025 51.4414 370.713 51.8828 371.213 52.5469C371.72 53.2109 371.974 54.0234 371.974 54.9844C371.974 56.625 371.451 57.8672 370.404 58.7109C369.357 59.5547 367.865 59.9844 365.927 60H359.295ZM362.81 52.5703V57.1758H365.822C366.65 57.1758 367.295 56.9805 367.756 56.5898C368.224 56.1914 368.459 55.6445 368.459 54.9492C368.459 53.3867 367.65 52.5938 366.033 52.5703H362.81ZM362.81 50.0859H365.412C367.185 50.0547 368.072 49.3477 368.072 47.9648C368.072 47.1914 367.845 46.6367 367.392 46.3008C366.947 45.957 366.24 45.7852 365.271 45.7852H362.81V50.0859ZM386.881 60H383.365V42.9375H386.881V60ZM402.186 57.1758H409.651V60H398.671V42.9375H402.186V57.1758ZM423.937 60H420.421V42.9375H423.937V60ZM445.57 56.4844H439.406L438.234 60H434.496L440.847 42.9375H444.105L450.492 60H446.754L445.57 56.4844ZM440.355 53.6367H444.621L442.476 47.25L440.355 53.6367ZM466.922 53.7539H464.121V60H460.606V42.9375H466.945C468.961 42.9375 470.516 43.3867 471.61 44.2852C472.703 45.1836 473.25 46.4531 473.25 48.0938C473.25 49.2578 472.996 50.2305 472.488 51.0117C471.988 51.7852 471.227 52.4023 470.203 52.8633L473.895 59.8359V60H470.121L466.922 53.7539ZM464.121 50.9062H466.957C467.84 50.9062 468.524 50.6836 469.008 50.2383C469.492 49.7852 469.735 49.1641 469.735 48.375C469.735 47.5703 469.504 46.9375 469.043 46.4766C468.59 46.0156 467.891 45.7852 466.945 45.7852H464.121V50.9062ZM488.192 60H484.676V42.9375H488.192V60ZM509.825 56.4844H503.661L502.489 60H498.751L505.103 42.9375H508.36L514.747 60H511.009L509.825 56.4844ZM504.61 53.6367H508.876L506.732 47.25L504.61 53.6367Z" fill="#F7934C"/>
</g>
<rect width="75" height="75" rx="5" fill="#F7934C"/>
<g filter="url(#filter1_d)">
<path d="M5.26 39.084C5.26 36.348 5.824 33.912 6.952 31.776C8.272 29.256 10.252 27.504 12.892 26.52C14.356 25.992 15.88 25.728 17.464 25.728C19.048 25.728 20.572 25.848 22.036 26.088C23.5 26.328 24.46 26.544 24.916 26.736C25.06 27.624 25.132 28.56 25.132 29.544C25.132 30.504 25.108 31.584 25.06 32.784L23.008 33.072C22.48 30.288 22.012 28.752 21.604 28.464C21.388 28.296 20.824 28.116 19.912 27.924C19.024 27.732 18.136 27.636 17.248 27.636C14.608 27.636 12.616 28.608 11.272 30.552C9.928 32.496 9.256 35.052 9.256 38.22C9.256 41.964 10.108 44.748 11.812 46.572C13.516 48.396 15.628 49.308 18.148 49.308C19.06 49.308 19.912 49.2 20.704 48.984C21.52 48.768 22.048 48.564 22.288 48.372C22.552 48.18 22.948 46.656 23.476 43.8L25.456 43.872C25.456 45.696 25.324 47.64 25.06 49.704C24.316 50.112 23.188 50.484 21.676 50.82C20.188 51.156 18.664 51.324 17.104 51.324C13.192 51.324 10.24 50.172 8.248 47.868C6.256 45.564 5.26 42.636 5.26 39.084ZM28.1242 51L27.9082 49.596C29.1802 49.38 29.9482 49.14 30.2122 48.876C30.5002 48.612 30.6442 48.108 30.6442 47.364V29.688C30.6442 28.944 30.5002 28.44 30.2122 28.176C29.9482 27.912 29.1802 27.672 27.9082 27.456L28.1242 26.052H36.9442L37.0882 27.456L34.8562 27.888C34.3762 27.984 34.1362 28.296 34.1362 28.824V49.164L37.3402 49.128C40.0042 49.08 41.5642 48.996 42.0202 48.876C42.4042 48.756 43.0762 46.908 44.0362 43.332L46.0162 43.512C46.0402 43.92 46.0522 44.76 46.0522 46.032C46.0522 47.28 45.9202 48.936 45.6562 51H28.1242ZM48.1984 51L47.9824 49.596C49.2544 49.38 50.0224 49.14 50.2864 48.876C50.5744 48.612 50.7184 48.108 50.7184 47.364V29.688C50.7184 28.944 50.5744 28.44 50.2864 28.176C50.0224 27.912 49.2544 27.672 47.9824 27.456L48.1984 26.052H59.4664C61.5304 26.052 63.3184 26.388 64.8304 27.06C66.3424 27.708 67.5184 28.608 68.3584 29.76C69.9904 31.968 70.8064 34.632 70.8064 37.752C70.8064 41.184 69.8944 44.172 68.0704 46.716C67.1584 48.012 65.8864 49.056 64.2544 49.848C62.6464 50.616 60.7864 51 58.6744 51H48.1984ZM54.2104 47.652C54.2104 48.18 54.4624 48.492 54.9664 48.588C56.6464 48.924 57.9184 49.092 58.7824 49.092C61.4464 49.092 63.4504 48.144 64.7944 46.248C66.1384 44.352 66.8104 41.82 66.8104 38.652C66.8104 36.66 66.5464 34.932 66.0184 33.468C65.5144 32.004 64.8304 30.888 63.9664 30.12C62.3344 28.68 60.5584 27.96 58.6384 27.96H54.2104V47.652Z" fill="white"/>
</g>
<defs>
<filter id="filter0_d" x="85.1016" y="9.88672" width="436.447" height="58.3477" filterUnits="userSpaceOnUse" color-interpolation-filters="sRGB">
<feFlood flood-opacity="0" result="BackgroundImageFix"/>
<feColorMatrix in="SourceAlpha" type="matrix" values="0 0 0 0 0 0 0 0 0 0 0 0 0 0 0 0 0 0 127 0"/>
<feOffset dy="4"/>
<feGaussianBlur stdDeviation="2"/>
<feColorMatrix type="matrix" values="0 0 0 0 0 0 0 0 0 0 0 0 0 0 0 0 0 0 0.25 0"/>
<feBlend mode="normal" in2="BackgroundImageFix" result="effect1_dropShadow"/>
<feBlend mode="normal" in="SourceGraphic" in2="effect1_dropShadow" result="shape"/>
</filter>
<filter id="filter1_d" x="1.26001" y="25.728" width="73.5464" height="33.596" filterUnits="userSpaceOnUse" color-interpolation-filters="sRGB">
<feFlood flood-opacity="0" result="BackgroundImageFix"/>
<feColorMatrix in="SourceAlpha" type="matrix" values="0 0 0 0 0 0 0 0 0 0 0 0 0 0 0 0 0 0 127 0"/>
<feOffset dy="4"/>
<feGaussianBlur stdDeviation="2"/>
<feColorMatrix type="matrix" values="0 0 0 0 0 0 0 0 0 0 0 0 0 0 0 0 0 0 0.25 0"/>
<feBlend mode="normal" in2="BackgroundImageFix" result="effect1_dropShadow"/>
<feBlend mode="normal" in="SourceGraphic" in2="effect1_dropShadow" result="shape"/>
</filter>
</defs>
</svg>

