<svg width="75" height="75" viewBox="0 0 75 75" fill="none" xmlns="http://www.w3.org/2000/svg">
<rect width="75" height="75" rx="5" fill="#F7934C"/>
<g filter="url(#filter0_d)">
<path d="M5.26 39.084C5.26 36.348 5.824 33.912 6.952 31.776C8.272 29.256 10.252 27.504 12.892 26.52C14.356 25.992 15.88 25.728 17.464 25.728C19.048 25.728 20.572 25.848 22.036 26.088C23.5 26.328 24.46 26.544 24.916 26.736C25.06 27.624 25.132 28.56 25.132 29.544C25.132 30.504 25.108 31.584 25.06 32.784L23.008 33.072C22.48 30.288 22.012 28.752 21.604 28.464C21.388 28.296 20.824 28.116 19.912 27.924C19.024 27.732 18.136 27.636 17.248 27.636C14.608 27.636 12.616 28.608 11.272 30.552C9.928 32.496 9.256 35.052 9.256 38.22C9.256 41.964 10.108 44.748 11.812 46.572C13.516 48.396 15.628 49.308 18.148 49.308C19.06 49.308 19.912 49.2 20.704 48.984C21.52 48.768 22.048 48.564 22.288 48.372C22.552 48.18 22.948 46.656 23.476 43.8L25.456 43.872C25.456 45.696 25.324 47.64 25.06 49.704C24.316 50.112 23.188 50.484 21.676 50.82C20.188 51.156 18.664 51.324 17.104 51.324C13.192 51.324 10.24 50.172 8.248 47.868C6.256 45.564 5.26 42.636 5.26 39.084ZM28.1242 51L27.9082 49.596C29.1802 49.38 29.9482 49.14 30.2122 48.876C30.5002 48.612 30.6442 48.108 30.6442 47.364V29.688C30.6442 28.944 30.5002 28.44 30.2122 28.176C29.9482 27.912 29.1802 27.672 27.9082 27.456L28.1242 26.052H36.9442L37.0882 27.456L34.8562 27.888C34.3762 27.984 34.1362 28.296 34.1362 28.824V49.164L37.3402 49.128C40.0042 49.08 41.5642 48.996 42.0202 48.876C42.4042 48.756 43.0762 46.908 44.0362 43.332L46.0162 43.512C46.0402 43.92 46.0522 44.76 46.0522 46.032C46.0522 47.28 45.9202 48.936 45.6562 51H28.1242ZM48.1984 51L47.9824 49.596C49.2544 49.38 50.0224 49.14 50.2864 48.876C50.5744 48.612 50.7184 48.108 50.7184 47.364V29.688C50.7184 28.944 50.5744 28.44 50.2864 28.176C50.0224 27.912 49.2544 27.672 47.9824 27.456L48.1984 26.052H59.4664C61.5304 26.052 63.3184 26.388 64.8304 27.06C66.3424 27.708 67.5184 28.608 68.3584 29.76C69.9904 31.968 70.8064 34.632 70.8064 37.752C70.8064 41.184 69.8944 44.172 68.0704 46.716C67.1584 48.012 65.8864 49.056 64.2544 49.848C62.6464 50.616 60.7864 51 58.6744 51H48.1984ZM54.2104 47.652C54.2104 48.18 54.4624 48.492 54.9664 48.588C56.6464 48.924 57.9184 49.092 58.7824 49.092C61.4464 49.092 63.4504 48.144 64.7944 46.248C66.1384 44.352 66.8104 41.82 66.8104 38.652C66.8104 36.66 66.5464 34.932 66.0184 33.468C65.5144 32.004 64.8304 30.888 63.9664 30.12C62.3344 28.68 60.5584 27.96 58.6384 27.96H54.2104V47.652Z" fill="white"/>
</g>
<defs>
<filter id="filter0_d" x="1.26001" y="25.728" width="73.5464" height="33.596" filterUnits="userSpaceOnUse" color-interpolation-filters="sRGB">
<feFlood flood-opacity="0" result="BackgroundImageFix"/>
<feColorMatrix in="SourceAlpha" type="matrix" values="0 0 0 0 0 0 0 0 0 0 0 0 0 0 0 0 0 0 127 0"/>
<feOffset dy="4"/>
<feGaussianBlur stdDeviation="2"/>
<feColorMatrix type="matrix" values="0 0 0 0 0 0 0 0 0 0 0 0 0 0 0 0 0 0 0.25 0"/>
<feBlend mode="normal" in2="BackgroundImageFix" result="effect1_dropShadow"/>
<feBlend mode="normal" in="SourceGraphic" in2="effect1_dropShadow" result="shape"/>
</filter>
</defs>
</svg>

