<svg width="513" height="75" viewBox="0 0 513 75" fill="none" xmlns="http://www.w3.org/2000/svg">
<g filter="url(#filter0_d)">
<path d="M106.647 22.8955C106.481 25.1904 105.632 26.9971 104.099 28.3154C102.575 29.6338 100.563 30.293 98.0635 30.293C95.3291 30.293 93.1758 29.375 91.6035 27.5391C90.041 25.6934 89.2598 23.1641 89.2598 19.9512V18.6475C89.2598 16.5967 89.6211 14.79 90.3438 13.2275C91.0664 11.665 92.0967 10.4688 93.4346 9.63867C94.7822 8.79883 96.3447 8.37891 98.1221 8.37891C100.583 8.37891 102.565 9.03809 104.069 10.3564C105.573 11.6748 106.442 13.5254 106.677 15.9082H102.282C102.175 14.5312 101.789 13.5352 101.125 12.9199C100.471 12.2949 99.4697 11.9824 98.1221 11.9824C96.6572 11.9824 95.5586 12.5098 94.8262 13.5645C94.1035 14.6094 93.7324 16.2354 93.7129 18.4424V20.0537C93.7129 22.3584 94.0596 24.043 94.7529 25.1074C95.4561 26.1719 96.5596 26.7041 98.0635 26.7041C99.4209 26.7041 100.432 26.3965 101.096 25.7812C101.77 25.1562 102.155 24.1943 102.253 22.8955H106.647ZM121.574 25.6055H113.869L112.404 30H107.731L115.671 8.67188H119.743L127.727 30H123.054L121.574 25.6055ZM115.056 22.0459H120.388L117.707 14.0625L115.056 22.0459ZM137.614 22.1924H134.113V30H129.719V8.67188H137.644C140.163 8.67188 142.106 9.2334 143.474 10.3564C144.841 11.4795 145.524 13.0664 145.524 15.1172C145.524 16.5723 145.207 17.7881 144.572 18.7646C143.947 19.7314 142.995 20.5029 141.716 21.0791L146.33 29.7949V30H141.613L137.614 22.1924ZM134.113 18.6328H137.658C138.762 18.6328 139.616 18.3545 140.222 17.7979C140.827 17.2314 141.13 16.4551 141.13 15.4688C141.13 14.4629 140.842 13.6719 140.266 13.0957C139.699 12.5195 138.825 12.2314 137.644 12.2314H134.113V18.6328ZM166.398 19.8193C166.398 21.9189 166.027 23.7598 165.285 25.3418C164.543 26.9238 163.479 28.1445 162.092 29.0039C160.715 29.8633 159.133 30.293 157.346 30.293C155.578 30.293 154.001 29.8682 152.614 29.0186C151.228 28.1689 150.153 26.958 149.392 25.3857C148.63 23.8037 148.244 21.9873 148.234 19.9365V18.8818C148.234 16.7822 148.61 14.9365 149.362 13.3447C150.124 11.7432 151.193 10.5176 152.57 9.66797C153.957 8.80859 155.539 8.37891 157.316 8.37891C159.094 8.37891 160.671 8.80859 162.048 9.66797C163.435 10.5176 164.504 11.7432 165.256 13.3447C166.018 14.9365 166.398 16.7773 166.398 18.8672V19.8193ZM161.945 18.8525C161.945 16.6162 161.545 14.917 160.744 13.7549C159.943 12.5928 158.801 12.0117 157.316 12.0117C155.842 12.0117 154.704 12.5879 153.903 13.7402C153.103 14.8828 152.697 16.5625 152.688 18.7793V19.8193C152.688 21.9971 153.088 23.6865 153.889 24.8877C154.689 26.0889 155.842 26.6895 157.346 26.6895C158.82 26.6895 159.953 26.1133 160.744 24.9609C161.535 23.7988 161.936 22.1094 161.945 19.8926V18.8525ZM173.986 26.4697H183.317V30H169.592V8.67188H173.986V26.4697ZM190.524 30H186.13V8.67188H190.524V30ZM211.955 30H207.561L199.006 15.9668V30H194.611V8.67188H199.006L207.575 22.7344V8.67188H211.955V30ZM228.098 25.6055H220.393L218.928 30H214.255L222.194 8.67188H226.267L234.25 30H229.577L228.098 25.6055ZM221.579 22.0459H226.911L224.23 14.0625L221.579 22.0459ZM248.107 26.4697H257.438V30H243.713V8.67188H248.107V26.4697ZM272.307 25.6055H264.602L263.137 30H258.464L266.403 8.67188H270.476L278.459 30H273.786L272.307 25.6055ZM265.788 22.0459H271.12L268.439 14.0625L265.788 22.0459ZM294.748 12.2314H288.215V30H283.82V12.2314H277.375V8.67188H294.748V12.2314ZM314.377 19.8193C314.377 21.9189 314.006 23.7598 313.264 25.3418C312.521 26.9238 311.457 28.1445 310.07 29.0039C308.693 29.8633 307.111 30.293 305.324 30.293C303.557 30.293 301.979 29.8682 300.593 29.0186C299.206 28.1689 298.132 26.958 297.37 25.3857C296.608 23.8037 296.223 21.9873 296.213 19.9365V18.8818C296.213 16.7822 296.589 14.9365 297.341 13.3447C298.103 11.7432 299.172 10.5176 300.549 9.66797C301.936 8.80859 303.518 8.37891 305.295 8.37891C307.072 8.37891 308.649 8.80859 310.026 9.66797C311.413 10.5176 312.482 11.7432 313.234 13.3447C313.996 14.9365 314.377 16.7773 314.377 18.8672V19.8193ZM309.924 18.8525C309.924 16.6162 309.523 14.917 308.723 13.7549C307.922 12.5928 306.779 12.0117 305.295 12.0117C303.82 12.0117 302.683 12.5879 301.882 13.7402C301.081 14.8828 300.676 16.5625 300.666 18.7793V19.8193C300.666 21.9971 301.066 23.6865 301.867 24.8877C302.668 26.0889 303.82 26.6895 305.324 26.6895C306.799 26.6895 307.932 26.1133 308.723 24.9609C309.514 23.7988 309.914 22.1094 309.924 19.8926V18.8525ZM325.466 22.1924H321.965V30H317.57V8.67188H325.495C328.015 8.67188 329.958 9.2334 331.325 10.3564C332.692 11.4795 333.376 13.0664 333.376 15.1172C333.376 16.5723 333.059 17.7881 332.424 18.7646C331.799 19.7314 330.847 20.5029 329.567 21.0791L334.182 29.7949V30H329.465L325.466 22.1924ZM321.965 18.6328H325.51C326.613 18.6328 327.468 18.3545 328.073 17.7979C328.679 17.2314 328.981 16.4551 328.981 15.4688C328.981 14.4629 328.693 13.6719 328.117 13.0957C327.551 12.5195 326.677 12.2314 325.495 12.2314H321.965V18.6328ZM344.626 22.1924H341.125V30H336.73V8.67188H344.655C347.175 8.67188 349.118 9.2334 350.485 10.3564C351.853 11.4795 352.536 13.0664 352.536 15.1172C352.536 16.5723 352.219 17.7881 351.584 18.7646C350.959 19.7314 350.007 20.5029 348.728 21.0791L353.342 29.7949V30H348.625L344.626 22.1924ZM341.125 18.6328H344.67C345.773 18.6328 346.628 18.3545 347.233 17.7979C347.839 17.2314 348.142 16.4551 348.142 15.4688C348.142 14.4629 347.854 13.6719 347.277 13.0957C346.711 12.5195 345.837 12.2314 344.655 12.2314H341.125V18.6328ZM368.723 20.7568H360.285V26.4697H370.188V30H355.891V8.67188H370.158V12.2314H360.285V17.3145H368.723V20.7568ZM380.236 30V8.67188H386.799C388.674 8.67188 390.349 9.09668 391.823 9.94629C393.308 10.7861 394.465 11.9873 395.295 13.5498C396.125 15.1025 396.54 16.8701 396.54 18.8525V19.834C396.54 21.8164 396.13 23.5791 395.31 25.1221C394.499 26.665 393.352 27.8613 391.867 28.7109C390.383 29.5605 388.708 29.9902 386.843 30H380.236ZM384.631 12.2314V26.4697H386.755C388.474 26.4697 389.787 25.9082 390.695 24.7852C391.604 23.6621 392.067 22.0557 392.087 19.9658V18.8379C392.087 16.6699 391.638 15.0293 390.739 13.916C389.841 12.793 388.527 12.2314 386.799 12.2314H384.631ZM412.58 20.7568H404.143V26.4697H414.045V30H399.748V8.67188H414.016V12.2314H404.143V17.3145H412.58V20.7568ZM433.366 22.8955C433.2 25.1904 432.351 26.9971 430.817 28.3154C429.294 29.6338 427.282 30.293 424.782 30.293C422.048 30.293 419.895 29.375 418.322 27.5391C416.76 25.6934 415.979 23.1641 415.979 19.9512V18.6475C415.979 16.5967 416.34 14.79 417.062 13.2275C417.785 11.665 418.815 10.4688 420.153 9.63867C421.501 8.79883 423.063 8.37891 424.841 8.37891C427.302 8.37891 429.284 9.03809 430.788 10.3564C432.292 11.6748 433.161 13.5254 433.396 15.9082H429.001C428.894 14.5312 428.508 13.5352 427.844 12.9199C427.189 12.2949 426.188 11.9824 424.841 11.9824C423.376 11.9824 422.277 12.5098 421.545 13.5645C420.822 14.6094 420.451 16.2354 420.432 18.4424V20.0537C420.432 22.3584 420.778 24.043 421.472 25.1074C422.175 26.1719 423.278 26.7041 424.782 26.7041C426.14 26.7041 427.15 26.3965 427.814 25.7812C428.488 25.1562 428.874 24.1943 428.972 22.8955H433.366ZM440.925 30H436.53V8.67188H440.925V30ZM449.67 26.4697H460.422V30H444.177V27.4219L454.724 12.2314H444.191V8.67188H460.188V11.1914L449.67 26.4697ZM476.037 20.7568H467.6V26.4697H477.502V30H463.205V8.67188H477.473V12.2314H467.6V17.3145H476.037V20.7568ZM487.976 22.1924H484.475V30H480.08V8.67188H488.005C490.524 8.67188 492.468 9.2334 493.835 10.3564C495.202 11.4795 495.886 13.0664 495.886 15.1172C495.886 16.5723 495.568 17.7881 494.934 18.7646C494.309 19.7314 493.356 20.5029 492.077 21.0791L496.691 29.7949V30H491.975L487.976 22.1924ZM484.475 18.6328H488.02C489.123 18.6328 489.978 18.3545 490.583 17.7979C491.188 17.2314 491.491 16.4551 491.491 15.4688C491.491 14.4629 491.203 13.6719 490.627 13.0957C490.061 12.5195 489.187 12.2314 488.005 12.2314H484.475V18.6328Z" fill="white"/>
<path d="M103.023 55.8438C102.391 56.6016 101.496 57.1914 100.34 57.6133C99.1836 58.0273 97.9023 58.2344 96.4961 58.2344C95.0195 58.2344 93.7227 57.9141 92.6055 57.2734C91.4961 56.625 90.6367 55.6875 90.0273 54.4609C89.4258 53.2344 89.1172 51.793 89.1016 50.1367V48.9766C89.1016 47.2734 89.3867 45.8008 89.957 44.5586C90.5352 43.3086 91.3633 42.3555 92.4414 41.6992C93.5273 41.0352 94.7969 40.7031 96.25 40.7031C98.2734 40.7031 99.8555 41.1875 100.996 42.1562C102.137 43.1172 102.812 44.5195 103.023 46.3633H99.6016C99.4453 45.3867 99.0977 44.6719 98.5586 44.2188C98.0273 43.7656 97.293 43.5391 96.3555 43.5391C95.1602 43.5391 94.25 43.9883 93.625 44.8867C93 45.7852 92.6836 47.1211 92.6758 48.8945V49.9844C92.6758 51.7734 93.0156 53.125 93.6953 54.0391C94.375 54.9531 95.3711 55.4102 96.6836 55.4102C98.0039 55.4102 98.9453 55.1289 99.5078 54.5664V51.625H96.3086V49.0352H103.023V55.8438ZM123.948 50.6055H117.198V55.1758H125.12V58H113.683V40.9375H125.097V43.7852H117.198V47.8516H123.948V50.6055ZM143.83 53.5234C143.83 52.8594 143.596 52.3516 143.127 52C142.659 51.6406 141.815 51.2656 140.596 50.875C139.377 50.4766 138.412 50.0859 137.702 49.7031C135.764 48.6562 134.795 47.2461 134.795 45.4727C134.795 44.5508 135.053 43.7305 135.569 43.0117C136.092 42.2852 136.838 41.7188 137.807 41.3125C138.784 40.9062 139.877 40.7031 141.088 40.7031C142.307 40.7031 143.393 40.9258 144.346 41.3711C145.299 41.8086 146.037 42.4297 146.561 43.2344C147.092 44.0391 147.358 44.9531 147.358 45.9766H143.842C143.842 45.1953 143.596 44.5898 143.104 44.1602C142.612 43.7227 141.92 43.5039 141.03 43.5039C140.17 43.5039 139.502 43.6875 139.026 44.0547C138.549 44.4141 138.311 44.8906 138.311 45.4844C138.311 46.0391 138.588 46.5039 139.143 46.8789C139.705 47.2539 140.53 47.6055 141.616 47.9336C143.616 48.5352 145.073 49.2812 145.987 50.1719C146.901 51.0625 147.358 52.1719 147.358 53.5C147.358 54.9766 146.799 56.1367 145.682 56.9805C144.565 57.8164 143.061 58.2344 141.17 58.2344C139.858 58.2344 138.662 57.9961 137.584 57.5195C136.506 57.0352 135.682 56.375 135.112 55.5391C134.549 54.7031 134.268 53.7344 134.268 52.6328H137.795C137.795 54.5156 138.92 55.457 141.17 55.457C142.006 55.457 142.659 55.2891 143.127 54.9531C143.596 54.6094 143.83 54.1328 143.83 53.5234ZM170.392 43.7852H165.166V58H161.65V43.7852H156.494V40.9375H170.392V43.7852ZM183.946 58H180.43V40.9375H183.946V58ZM209.031 49.8555C209.031 51.5352 208.734 53.0078 208.141 54.2734C207.547 55.5391 206.695 56.5156 205.586 57.2031C204.484 57.8906 203.219 58.2344 201.789 58.2344C200.375 58.2344 199.113 57.8945 198.004 57.2148C196.895 56.5352 196.035 55.5664 195.426 54.3086C194.816 53.043 194.508 51.5898 194.5 49.9492V49.1055C194.5 47.4258 194.801 45.9492 195.402 44.6758C196.012 43.3945 196.867 42.4141 197.969 41.7344C199.078 41.0469 200.344 40.7031 201.766 40.7031C203.188 40.7031 204.449 41.0469 205.551 41.7344C206.66 42.4141 207.516 43.3945 208.117 44.6758C208.727 45.9492 209.031 47.4219 209.031 49.0938V49.8555ZM205.469 49.082C205.469 47.293 205.148 45.9336 204.508 45.0039C203.867 44.0742 202.953 43.6094 201.766 43.6094C200.586 43.6094 199.676 44.0703 199.035 44.9922C198.395 45.9062 198.07 47.25 198.062 49.0234V49.8555C198.062 51.5977 198.383 52.9492 199.023 53.9102C199.664 54.8711 200.586 55.3516 201.789 55.3516C202.969 55.3516 203.875 54.8906 204.508 53.9688C205.141 53.0391 205.461 51.6875 205.469 49.9141V49.082ZM202.445 36.3672H206.137L202.891 40H200.137L202.445 36.3672ZM233.261 58H229.745L222.902 46.7734V58H219.386V40.9375H222.902L229.757 52.1875V40.9375H233.261V58ZM261.646 58H258.13V40.9375H261.646V58ZM286.591 58H283.075L276.231 46.7734V58H272.716V40.9375H276.231L283.087 52.1875V40.9375H286.591V58ZM302.055 40.9375L306.438 53.3125L310.797 40.9375H315.414V58H311.887V53.3359L312.238 45.2852L307.633 58H305.219L300.625 45.2969L300.977 53.3359V58H297.461V40.9375H302.055ZM340.3 49.8555C340.3 51.5352 340.003 53.0078 339.409 54.2734C338.816 55.5391 337.964 56.5156 336.855 57.2031C335.753 57.8906 334.488 58.2344 333.058 58.2344C331.644 58.2344 330.382 57.8945 329.273 57.2148C328.163 56.5352 327.304 55.5664 326.695 54.3086C326.085 53.043 325.777 51.5898 325.769 49.9492V49.1055C325.769 47.4258 326.07 45.9492 326.671 44.6758C327.28 43.3945 328.136 42.4141 329.238 41.7344C330.347 41.0469 331.613 40.7031 333.034 40.7031C334.456 40.7031 335.718 41.0469 336.82 41.7344C337.929 42.4141 338.784 43.3945 339.386 44.6758C339.995 45.9492 340.3 47.4219 340.3 49.0938V49.8555ZM336.738 49.082C336.738 47.293 336.417 45.9336 335.777 45.0039C335.136 44.0742 334.222 43.6094 333.034 43.6094C331.855 43.6094 330.945 44.0703 330.304 44.9922C329.663 45.9062 329.339 47.25 329.331 49.0234V49.8555C329.331 51.5977 329.652 52.9492 330.292 53.9102C330.933 54.8711 331.855 55.3516 333.058 55.3516C334.238 55.3516 335.144 54.8906 335.777 53.9688C336.409 53.0391 336.73 51.6875 336.738 49.9141V49.082ZM350.655 58V40.9375H356.631C358.702 40.9375 360.272 41.3359 361.342 42.1328C362.413 42.9219 362.948 44.082 362.948 45.6133C362.948 46.4492 362.733 47.1875 362.303 47.8281C361.873 48.4609 361.276 48.9258 360.51 49.2227C361.385 49.4414 362.073 49.8828 362.573 50.5469C363.08 51.2109 363.334 52.0234 363.334 52.9844C363.334 54.625 362.811 55.8672 361.764 56.7109C360.717 57.5547 359.225 57.9844 357.288 58H350.655ZM354.17 50.5703V55.1758H357.182C358.01 55.1758 358.655 54.9805 359.116 54.5898C359.584 54.1914 359.819 53.6445 359.819 52.9492C359.819 51.3867 359.01 50.5938 357.393 50.5703H354.17ZM354.17 48.0859H356.772C358.545 48.0547 359.432 47.3477 359.432 45.9648C359.432 45.1914 359.205 44.6367 358.752 44.3008C358.307 43.957 357.6 43.7852 356.631 43.7852H354.17V48.0859ZM377.521 58H374.005V40.9375H377.521V58ZM392.106 55.1758H399.571V58H388.591V40.9375H392.106V55.1758ZM413.137 58H409.621V40.9375H413.137V58ZM434.05 54.4844H427.886L426.714 58H422.976L429.327 40.9375H432.585L438.972 58H435.234L434.05 54.4844ZM428.835 51.6367H433.101L430.956 45.25L428.835 51.6367ZM454.682 51.7539H451.881V58H448.366V40.9375H454.705C456.721 40.9375 458.276 41.3867 459.37 42.2852C460.463 43.1836 461.01 44.4531 461.01 46.0938C461.01 47.2578 460.756 48.2305 460.248 49.0117C459.748 49.7852 458.987 50.4023 457.963 50.8633L461.655 57.8359V58H457.881L454.682 51.7539ZM451.881 48.9062H454.717C455.6 48.9062 456.284 48.6836 456.768 48.2383C457.252 47.7852 457.495 47.1641 457.495 46.375C457.495 45.5703 457.264 44.9375 456.803 44.4766C456.35 44.0156 455.651 43.7852 454.705 43.7852H451.881V48.9062ZM475.232 58H471.716V40.9375H475.232V58ZM496.145 54.4844H489.981L488.809 58H485.071L491.423 40.9375H494.68L501.067 58H497.329L496.145 54.4844ZM490.93 51.6367H495.196L493.052 45.25L490.93 51.6367Z" fill="#F7934C"/>
</g>
<rect width="75" height="75" rx="5" fill="#F7934C"/>
<g filter="url(#filter1_d)">
<path d="M5.26 39.084C5.26 36.348 5.824 33.912 6.952 31.776C8.272 29.256 10.252 27.504 12.892 26.52C14.356 25.992 15.88 25.728 17.464 25.728C19.048 25.728 20.572 25.848 22.036 26.088C23.5 26.328 24.46 26.544 24.916 26.736C25.06 27.624 25.132 28.56 25.132 29.544C25.132 30.504 25.108 31.584 25.06 32.784L23.008 33.072C22.48 30.288 22.012 28.752 21.604 28.464C21.388 28.296 20.824 28.116 19.912 27.924C19.024 27.732 18.136 27.636 17.248 27.636C14.608 27.636 12.616 28.608 11.272 30.552C9.928 32.496 9.256 35.052 9.256 38.22C9.256 41.964 10.108 44.748 11.812 46.572C13.516 48.396 15.628 49.308 18.148 49.308C19.06 49.308 19.912 49.2 20.704 48.984C21.52 48.768 22.048 48.564 22.288 48.372C22.552 48.18 22.948 46.656 23.476 43.8L25.456 43.872C25.456 45.696 25.324 47.64 25.06 49.704C24.316 50.112 23.188 50.484 21.676 50.82C20.188 51.156 18.664 51.324 17.104 51.324C13.192 51.324 10.24 50.172 8.248 47.868C6.256 45.564 5.26 42.636 5.26 39.084ZM28.1242 51L27.9082 49.596C29.1802 49.38 29.9482 49.14 30.2122 48.876C30.5002 48.612 30.6442 48.108 30.6442 47.364V29.688C30.6442 28.944 30.5002 28.44 30.2122 28.176C29.9482 27.912 29.1802 27.672 27.9082 27.456L28.1242 26.052H36.9442L37.0882 27.456L34.8562 27.888C34.3762 27.984 34.1362 28.296 34.1362 28.824V49.164L37.3402 49.128C40.0042 49.08 41.5642 48.996 42.0202 48.876C42.4042 48.756 43.0762 46.908 44.0362 43.332L46.0162 43.512C46.0402 43.92 46.0522 44.76 46.0522 46.032C46.0522 47.28 45.9202 48.936 45.6562 51H28.1242ZM48.1984 51L47.9824 49.596C49.2544 49.38 50.0224 49.14 50.2864 48.876C50.5744 48.612 50.7184 48.108 50.7184 47.364V29.688C50.7184 28.944 50.5744 28.44 50.2864 28.176C50.0224 27.912 49.2544 27.672 47.9824 27.456L48.1984 26.052H59.4664C61.5304 26.052 63.3184 26.388 64.8304 27.06C66.3424 27.708 67.5184 28.608 68.3584 29.76C69.9904 31.968 70.8064 34.632 70.8064 37.752C70.8064 41.184 69.8944 44.172 68.0704 46.716C67.1584 48.012 65.8864 49.056 64.2544 49.848C62.6464 50.616 60.7864 51 58.6744 51H48.1984ZM54.2104 47.652C54.2104 48.18 54.4624 48.492 54.9664 48.588C56.6464 48.924 57.9184 49.092 58.7824 49.092C61.4464 49.092 63.4504 48.144 64.7944 46.248C66.1384 44.352 66.8104 41.82 66.8104 38.652C66.8104 36.66 66.5464 34.932 66.0184 33.468C65.5144 32.004 64.8304 30.888 63.9664 30.12C62.3344 28.68 60.5584 27.96 58.6384 27.96H54.2104V47.652Z" fill="white"/>
</g>
<defs>
<filter id="filter0_d" x="85.1016" y="8.37891" width="419.966" height="57.8555" filterUnits="userSpaceOnUse" color-interpolation-filters="sRGB">
<feFlood flood-opacity="0" result="BackgroundImageFix"/>
<feColorMatrix in="SourceAlpha" type="matrix" values="0 0 0 0 0 0 0 0 0 0 0 0 0 0 0 0 0 0 127 0"/>
<feOffset dy="4"/>
<feGaussianBlur stdDeviation="2"/>
<feColorMatrix type="matrix" values="0 0 0 0 0 0 0 0 0 0 0 0 0 0 0 0 0 0 0.25 0"/>
<feBlend mode="normal" in2="BackgroundImageFix" result="effect1_dropShadow"/>
<feBlend mode="normal" in="SourceGraphic" in2="effect1_dropShadow" result="shape"/>
</filter>
<filter id="filter1_d" x="1.26001" y="25.728" width="73.5464" height="33.596" filterUnits="userSpaceOnUse" color-interpolation-filters="sRGB">
<feFlood flood-opacity="0" result="BackgroundImageFix"/>
<feColorMatrix in="SourceAlpha" type="matrix" values="0 0 0 0 0 0 0 0 0 0 0 0 0 0 0 0 0 0 127 0"/>
<feOffset dy="4"/>
<feGaussianBlur stdDeviation="2"/>
<feColorMatrix type="matrix" values="0 0 0 0 0 0 0 0 0 0 0 0 0 0 0 0 0 0 0.25 0"/>
<feBlend mode="normal" in2="BackgroundImageFix" result="effect1_dropShadow"/>
<feBlend mode="normal" in="SourceGraphic" in2="effect1_dropShadow" result="shape"/>
</filter>
</defs>
</svg>
